<svg width="163" height="20" viewBox="0 0 163 20" fill="none" xmlns="http://www.w3.org/2000/svg">
<path d="M0.140381 19V16.9492L1.95679 16.5977V4.35156L0.140381 4V1.9375H8.22632C9.53882 1.9375 10.6638 2.14062 11.6013 2.54688C12.5388 2.95312 13.2576 3.53516 13.7576 4.29297C14.2654 5.05078 14.5193 5.96094 14.5193 7.02344C14.5193 8.02344 14.2693 8.91797 13.7693 9.70703C13.2693 10.4961 12.574 11.1172 11.6833 11.5703C10.7927 12.0234 9.76538 12.2539 8.60132 12.2617H5.37866V16.5977L7.20679 16.9492V19H0.140381ZM11.1208 19L8.24976 11.6289L11.3318 10.8672L13.8162 16.6094L15.2693 16.9492V19H11.1208ZM5.37866 9.625H8.16772C9.1521 9.625 9.88647 9.41797 10.3708 9.00391C10.863 8.58203 11.1091 7.97266 11.1091 7.17578C11.1091 6.38672 10.8669 5.75781 10.3826 5.28906C9.89819 4.8125 9.17944 4.57422 8.22632 4.57422H5.37866V9.625ZM22.7693 19.2461C21.5193 19.2461 20.4451 18.9727 19.5466 18.4258C18.6482 17.8789 17.9607 17.1211 17.4841 16.1523C17.0076 15.1758 16.7693 14.0547 16.7693 12.7891V12.543C16.7693 11.2852 17.0076 10.1719 17.4841 9.20312C17.9607 8.22656 18.6443 7.46484 19.5349 6.91797C20.4333 6.36328 21.5037 6.08594 22.7458 6.08594C24.0037 6.08594 25.0779 6.36328 25.9685 6.91797C26.8591 7.46484 27.5427 8.22266 28.0193 9.19141C28.4958 10.1602 28.7341 11.2773 28.7341 12.543V12.7891C28.7341 14.0547 28.4958 15.1758 28.0193 16.1523C27.5427 17.1211 26.8591 17.8789 25.9685 18.4258C25.0779 18.9727 24.0115 19.2461 22.7693 19.2461ZM22.7693 16.6211C23.363 16.6211 23.8474 16.4609 24.2224 16.1406C24.5974 15.8203 24.8748 15.375 25.0544 14.8047C25.2341 14.2266 25.324 13.5547 25.324 12.7891V12.543C25.324 11.793 25.2341 11.1328 25.0544 10.5625C24.8748 9.98438 24.5935 9.53516 24.2107 9.21484C23.8357 8.88672 23.3474 8.72266 22.7458 8.72266C22.1599 8.72266 21.6755 8.88672 21.2927 9.21484C20.9099 9.53516 20.6287 9.98438 20.449 10.5625C20.2771 11.1328 20.1912 11.793 20.1912 12.543V12.7891C20.1912 13.5547 20.2771 14.2266 20.449 14.8047C20.6287 15.3828 20.9099 15.832 21.2927 16.1523C21.6755 16.4648 22.1677 16.6211 22.7693 16.6211ZM36.3748 19.2461C35.156 19.2461 34.1013 18.9727 33.2107 18.4258C32.3279 17.8789 31.6482 17.125 31.1716 16.1641C30.6951 15.1953 30.4568 14.0898 30.4568 12.8477V12.4961C30.4568 11.2461 30.699 10.1406 31.1833 9.17969C31.6677 8.21875 32.3513 7.46484 33.2341 6.91797C34.1169 6.36328 35.156 6.08594 36.3513 6.08594C37.4919 6.08594 38.4724 6.26562 39.2927 6.625C40.1208 6.97656 40.7927 7.38672 41.3083 7.85547L41.2849 11.4883H38.7068L38.2498 9.22656C38.0623 9.03906 37.824 8.88672 37.5349 8.76953C37.2458 8.65234 36.9529 8.59375 36.656 8.59375C36.031 8.59375 35.5115 8.75 35.0974 9.0625C34.6912 9.375 34.3865 9.82031 34.1833 10.3984C33.9802 10.9766 33.8787 11.6758 33.8787 12.4961V12.8477C33.8787 13.7148 33.9919 14.4297 34.2185 14.9922C34.4451 15.5469 34.7458 15.957 35.1208 16.2227C35.5037 16.4883 35.9294 16.6211 36.3982 16.6211C36.9998 16.6211 37.4802 16.4648 37.8396 16.1523C38.2068 15.832 38.4568 15.3828 38.5896 14.8047H41.5193L41.5544 14.875C41.4216 15.7734 41.156 16.5508 40.7576 17.207C40.3669 17.8633 39.8123 18.3672 39.0935 18.7188C38.3826 19.0703 37.4763 19.2461 36.3748 19.2461ZM42.9021 19V16.9492L44.5544 16.5977V3.13281L42.7263 2.78125V0.71875H47.9646V16.5977L49.4412 16.9492V19H42.9021ZM50.9763 19V17.0547L51.9373 16.832L51.9138 16.7852L49.406 13.375L51.5857 11.1367L55.7458 16.5859L57.3162 16.9492V19H50.9763ZM47.6013 15.5312L45.9607 13.6211L51.4685 8.58203L51.4919 8.54688L50.1912 8.35938V6.32031H56.7888V8.38281L55.1482 8.79297L47.6013 15.5312ZM63.949 19.2461C62.738 19.2461 61.6794 18.9805 60.7732 18.4492C59.8669 17.9102 59.1638 17.1719 58.6638 16.2344C58.1716 15.2969 57.9255 14.2266 57.9255 13.0234V12.5547C57.9255 11.2969 58.1599 10.1836 58.6287 9.21484C59.0974 8.23828 59.7576 7.47266 60.6091 6.91797C61.4685 6.35547 62.4802 6.07812 63.6443 6.08594C64.7927 6.08594 65.7576 6.3125 66.5388 6.76562C67.3201 7.21875 67.9138 7.87109 68.3201 8.72266C68.7263 9.57422 68.9294 10.6055 68.9294 11.8164V13.6797H61.4763L61.4529 13.75C61.4998 14.3047 61.6365 14.8008 61.863 15.2383C62.0974 15.668 62.4255 16.0078 62.8474 16.2578C63.2693 16.5 63.781 16.6211 64.3826 16.6211C65.0076 16.6211 65.5896 16.543 66.1287 16.3867C66.6755 16.2227 67.2068 15.9844 67.7224 15.6719L68.6482 17.7812C68.1248 18.2031 67.4646 18.5547 66.6677 18.8359C65.8787 19.1094 64.9724 19.2461 63.949 19.2461ZM61.4998 11.418H65.7302V11.1133C65.7302 10.5977 65.6599 10.1562 65.5193 9.78906C65.3865 9.41406 65.1677 9.125 64.863 8.92188C64.5662 8.71875 64.1794 8.61719 63.7029 8.61719C63.2498 8.61719 62.8669 8.73828 62.5544 8.98047C62.2419 9.21484 61.9958 9.53906 61.8162 9.95312C61.6443 10.3672 61.5271 10.8359 61.4646 11.3594L61.4998 11.418ZM75.4919 19.2461C74.3123 19.2461 73.4021 18.9219 72.7615 18.2734C72.1287 17.625 71.8123 16.5977 71.8123 15.1914V8.72266H70.0662V6.32031H71.8123V3.21484H75.2224V6.32031H77.5544V8.72266H75.2224V15.1797C75.2224 15.6719 75.324 16.0234 75.5271 16.2344C75.738 16.4453 76.0232 16.5508 76.3826 16.5508C76.5779 16.5508 76.781 16.5391 76.9919 16.5156C77.2107 16.4844 77.3982 16.4531 77.5544 16.4219L77.8474 18.8945C77.4958 18.9961 77.113 19.0781 76.699 19.1406C76.2927 19.2109 75.8904 19.2461 75.4919 19.2461ZM79.0544 19V16.9492L80.8708 16.5977V4.35156L79.0544 4V1.9375H80.8708H85.9333L90.5857 13.832H90.656L95.156 1.9375H102.047V4L100.219 4.35156V16.5977L102.047 16.9492V19H94.9802V16.9492L96.8904 16.5977V13.3281L96.949 5.62891L96.8787 5.61719L91.781 18.7656H89.1912L83.9763 5.72266L83.906 5.73438L84.1052 12.9766V16.5977L86.1208 16.9492V19H79.0544ZM109.394 19.2461C108.144 19.2461 107.07 18.9727 106.172 18.4258C105.273 17.8789 104.586 17.1211 104.109 16.1523C103.633 15.1758 103.394 14.0547 103.394 12.7891V12.543C103.394 11.2852 103.633 10.1719 104.109 9.20312C104.586 8.22656 105.269 7.46484 106.16 6.91797C107.058 6.36328 108.129 6.08594 109.371 6.08594C110.629 6.08594 111.703 6.36328 112.594 6.91797C113.484 7.46484 114.168 8.22266 114.644 9.19141C115.121 10.1602 115.359 11.2773 115.359 12.543V12.7891C115.359 14.0547 115.121 15.1758 114.644 16.1523C114.168 17.1211 113.484 17.8789 112.594 18.4258C111.703 18.9727 110.636 19.2461 109.394 19.2461ZM109.394 16.6211C109.988 16.6211 110.472 16.4609 110.847 16.1406C111.222 15.8203 111.5 15.375 111.679 14.8047C111.859 14.2266 111.949 13.5547 111.949 12.7891V12.543C111.949 11.793 111.859 11.1328 111.679 10.5625C111.5 9.98438 111.219 9.53516 110.836 9.21484C110.461 8.88672 109.972 8.72266 109.371 8.72266C108.785 8.72266 108.301 8.88672 107.918 9.21484C107.535 9.53516 107.254 9.98438 107.074 10.5625C106.902 11.1328 106.816 11.793 106.816 12.543V12.7891C106.816 13.5547 106.902 14.2266 107.074 14.8047C107.254 15.3828 107.535 15.832 107.918 16.1523C108.301 16.4648 108.793 16.6211 109.394 16.6211ZM121.242 19L117.41 8.59375L116.039 8.38281V6.32031H122.191V8.37109L120.855 8.60547L122.765 14.3594L123.058 15.3438H123.129L123.457 14.3594L125.554 8.61719L123.996 8.37109V6.32031H130.136V8.38281L128.73 8.61719L124.722 19H121.242ZM131.039 19V16.9492L132.691 16.5977V8.73438L130.863 8.38281V6.32031H136.113V16.5977L137.754 16.9492V19H131.039ZM132.574 3.63672V0.71875H136.113V3.63672H132.574ZM144.972 19.2461C143.761 19.2461 142.703 18.9805 141.797 18.4492C140.89 17.9102 140.187 17.1719 139.687 16.2344C139.195 15.2969 138.949 14.2266 138.949 13.0234V12.5547C138.949 11.2969 139.183 10.1836 139.652 9.21484C140.121 8.23828 140.781 7.47266 141.633 6.91797C142.492 6.35547 143.504 6.07812 144.668 6.08594C145.816 6.08594 146.781 6.3125 147.562 6.76562C148.344 7.21875 148.937 7.87109 149.344 8.72266C149.75 9.57422 149.953 10.6055 149.953 11.8164V13.6797H142.5L142.476 13.75C142.523 14.3047 142.66 14.8008 142.886 15.2383C143.121 15.668 143.449 16.0078 143.871 16.2578C144.293 16.5 144.804 16.6211 145.406 16.6211C146.031 16.6211 146.613 16.543 147.152 16.3867C147.699 16.2227 148.23 15.9844 148.746 15.6719L149.672 17.7812C149.148 18.2031 148.488 18.5547 147.691 18.8359C146.902 19.1094 145.996 19.2461 144.972 19.2461ZM142.523 11.418H146.754V11.1133C146.754 10.5977 146.683 10.1562 146.543 9.78906C146.41 9.41406 146.191 9.125 145.886 8.92188C145.59 8.71875 145.203 8.61719 144.726 8.61719C144.273 8.61719 143.89 8.73828 143.578 8.98047C143.265 9.21484 143.019 9.53906 142.84 9.95312C142.668 10.3672 142.551 10.8359 142.488 11.3594L142.523 11.418ZM156.996 19.2461C156.051 19.2461 155.168 19.1562 154.347 18.9766C153.535 18.7969 152.754 18.5391 152.004 18.2031L151.969 14.6172H154.347L154.804 16.4453C155.07 16.5781 155.359 16.6836 155.672 16.7617C155.992 16.8398 156.355 16.8789 156.761 16.8789C157.527 16.8789 158.066 16.7539 158.379 16.5039C158.691 16.2539 158.847 15.9414 158.847 15.5664C158.847 15.2148 158.679 14.9062 158.344 14.6406C158.015 14.3672 157.355 14.1289 156.363 13.9258C154.863 13.6133 153.758 13.1289 153.047 12.4727C152.336 11.8164 151.98 10.9766 151.98 9.95312C151.98 9.25 152.156 8.60938 152.508 8.03125C152.867 7.45312 153.41 6.98828 154.136 6.63672C154.871 6.28516 155.808 6.10938 156.949 6.10938C157.902 6.10938 158.773 6.20312 159.562 6.39062C160.359 6.57031 161.027 6.80859 161.566 7.10547L161.601 10.5742H159.234L158.871 8.91016C158.66 8.75391 158.41 8.63672 158.121 8.55859C157.84 8.48047 157.519 8.44141 157.16 8.44141C156.558 8.44141 156.097 8.5625 155.777 8.80469C155.457 9.04688 155.297 9.35938 155.297 9.74219C155.297 9.96094 155.351 10.1641 155.461 10.3516C155.578 10.5391 155.804 10.7148 156.14 10.8789C156.476 11.043 156.965 11.1992 157.605 11.3477C159.176 11.707 160.32 12.1875 161.039 12.7891C161.758 13.3828 162.117 14.2188 162.117 15.2969C162.117 16.4766 161.687 17.4297 160.828 18.1562C159.976 18.8828 158.699 19.2461 156.996 19.2461Z" fill="#FF859B"/>
</svg>
